<svg width="28" height="28" viewBox="0 0 28 28" fill="none" xmlns="http://www.w3.org/2000/svg">
<path d="M4.5045 -6.10352e-05H22.973C25.4595 -6.10352e-05 27.4775 2.02697 27.4775 4.50444V22.9729C27.4775 25.4504 25.4595 27.4774 22.973 27.4774H4.5045C2.01802 27.4774 0 25.4504 0 22.9729V4.50444C0 2.02697 2.01802 -6.10352e-05 4.5045 -6.10352e-05Z" fill="#FF8313"/>
<path d="M5.82895 8.1085H22.383C22.865 8.1085 23.2524 8.51408 23.2524 8.96453C23.2524 9.46003 22.865 9.86543 22.383 9.86543H5.82895C5.34697 9.86543 4.95508 9.46003 4.95508 8.96453C4.95508 8.51408 5.34697 8.1085 5.82895 8.1085ZM10.9956 12.6579H22.5497C23.0317 12.6579 23.4235 13.0184 23.4235 13.5139C23.4235 14.0094 23.0317 14.3699 22.5497 14.3699H10.9956C10.5136 14.3699 10.1217 14.0094 10.1217 13.5139C10.1217 13.0184 10.5136 12.6579 10.9956 12.6579ZM5.82895 17.1175H22.3785C22.865 17.1175 23.2524 17.5231 23.2524 17.9735V18.0633C23.2524 18.5137 22.865 18.9193 22.3785 18.9193H5.82895C5.34697 18.9193 4.95508 18.5137 4.95508 18.0633V17.9735C4.95508 17.5231 5.34697 17.1175 5.82895 17.1175Z" fill="white"/>
</svg>
