<svg width="40" height="40" viewBox="0 0 40 40" fill="none" xmlns="http://www.w3.org/2000/svg">
<path d="M34.5 18.0533V18.0559V32.5012C34.5 33.0317 34.2893 33.5404 33.9142 33.9155C33.5391 34.2905 33.0304 34.5012 32.5 34.5012H26.25C25.7196 34.5012 25.2109 34.2905 24.8358 33.9155C24.4607 33.5404 24.25 33.0317 24.25 32.5012V26.2512C24.25 25.7871 24.0656 25.342 23.7374 25.0138C23.4092 24.6856 22.9641 24.5012 22.5 24.5012H17.5C17.0359 24.5012 16.5908 24.6856 16.2626 25.0138C15.9344 25.342 15.75 25.7871 15.75 26.2512V32.5012C15.75 33.0317 15.5393 33.5404 15.1642 33.9155C14.7891 34.2905 14.2804 34.5012 13.75 34.5012H7.5C6.96957 34.5012 6.46086 34.2905 6.08579 33.9155C5.71071 33.5404 5.5 33.0317 5.5 32.5012L5.5 18.0559L5.5 18.0559C5.49996 17.7791 5.55737 17.5053 5.66861 17.2518C5.77986 16.9983 5.9425 16.7707 6.14625 16.5834L6.14628 16.5834L6.15094 16.579L18.6509 4.78524L18.6562 4.78025L18.6614 4.77511L18.6697 4.76678C19.0368 4.43668 19.5131 4.25391 20.007 4.25391C20.4986 4.25391 20.9728 4.43495 21.3392 4.76211C21.3485 4.77161 21.3581 4.78084 21.3679 4.78978L33.8631 16.579L33.865 16.5808C34.0667 16.7691 34.2273 16.9972 34.3365 17.2506C34.4458 17.504 34.5015 17.7773 34.5 18.0533Z" fill="#FF7835" stroke="white"/>
</svg>
